<svg width="36" height="36" viewBox="0 0 36 36" fill="none" xmlns="http://www.w3.org/2000/svg">
<g clip-path="url(#clip0_809_284)">
<path d="M20.87 11.14H7.87L13.43 5.64999C13.6196 5.46036 13.7262 5.20317 13.7262 4.93499C13.7262 4.66681 13.6196 4.40962 13.43 4.21999C13.2404 4.03036 12.9832 3.92383 12.715 3.92383C12.4468 3.92383 12.1896 4.03036 12 4.21999L4 12.13L12 20C12.1883 20.187 12.4432 20.2915 12.7085 20.2905C12.9739 20.2896 13.228 20.1833 13.415 19.995C13.602 19.8067 13.7065 19.5518 13.7056 19.2865C13.7046 19.0211 13.5983 18.767 13.41 18.58L7.86 13.14H20.86C23.263 13.1267 25.5733 14.0665 27.2847 15.7534C28.996 17.4404 29.9689 19.737 29.99 22.14C29.9785 23.8055 29.505 25.4352 28.6222 26.8476C27.7394 28.26 26.4821 29.3998 24.99 30.14C24.7433 30.2646 24.5563 30.4822 24.4701 30.7447C24.4273 30.8747 24.4106 31.0119 24.4209 31.1483C24.4312 31.2848 24.4683 31.4179 24.53 31.54C24.5917 31.6621 24.6769 31.7709 24.7807 31.8601C24.8844 31.9493 25.0047 32.0172 25.1347 32.0599C25.3973 32.1462 25.6833 32.1246 25.93 32C28.1471 30.8812 29.9205 29.045 30.9614 26.7903C32.0024 24.5356 32.2498 21.9949 31.6633 19.5817C31.0768 17.1685 29.6909 15.0248 27.7313 13.4993C25.7716 11.9739 23.3533 11.1564 20.87 11.18V11.14Z" fill="#737373"/>
</g>
<defs>
<clipPath id="clip0_809_284">
<rect width="36" height="36" fill="white"/>
</clipPath>
</defs>
</svg>
