<svg width="36" height="36" viewBox="0 0 36 36" fill="none" xmlns="http://www.w3.org/2000/svg">
<g clip-path="url(#clip0_809_289)">
<path d="M15.13 11.14H28.13L22.57 5.64999C22.3804 5.46036 22.2738 5.20317 22.2738 4.93499C22.2738 4.66681 22.3804 4.40962 22.57 4.21999C22.7596 4.03036 23.0168 3.92383 23.285 3.92383C23.5532 3.92383 23.8104 4.03036 24 4.21999L32 12.13L24 20C23.8117 20.187 23.5568 20.2915 23.2915 20.2905C23.0261 20.2896 22.772 20.1833 22.585 19.995C22.398 19.8067 22.2935 19.5518 22.2944 19.2865C22.2954 19.0211 22.4017 18.767 22.59 18.58L28.14 13.14H15.14C12.737 13.1267 10.4267 14.0665 8.71532 15.7534C7.00397 17.4404 6.03114 19.737 6.01 22.14C6.02154 23.8055 6.49504 25.4352 7.3778 26.8476C8.26056 28.26 9.51794 29.3998 11.01 30.14C11.2567 30.2646 11.4437 30.4822 11.5299 30.7447C11.5727 30.8747 11.5894 31.0119 11.5791 31.1483C11.5688 31.2848 11.5317 31.4179 11.47 31.54C11.4083 31.6621 11.3231 31.7709 11.2193 31.8601C11.1156 31.9493 10.9953 32.0172 10.8653 32.0599C10.6027 32.1462 10.3167 32.1246 10.07 32C7.85285 30.8812 6.07954 29.045 5.03857 26.7903C3.99761 24.5356 3.75025 21.9949 4.33674 19.5817C4.92323 17.1685 6.30906 15.0248 8.26875 13.4993C10.2284 11.9739 12.6467 11.1564 15.13 11.18V11.14Z" fill="#737373"/>
</g>
<defs>
<clipPath id="clip0_809_289">
<rect width="36" height="36" fill="white" transform="matrix(-1 0 0 1 36 0)"/>
</clipPath>
</defs>
</svg>
